
<svg aria-hidden="true" style="position:absolute;width:0;height:0;overflow:hidden" xmlns="http://www.w3.org/2000/svg">
<defs>

<symbol id="github" width="32" height="32" fill="none" xmlns="http://www.w3.org/2000/svg"><circle cx="16" cy="16" r="16" fill="none"/><path d="M16 6.58838c-5.1694 0-9.41174 4.24232-9.41174 9.41172 0 4.4114 3.09541 8.4186 7.20584 9.4118v-3.1138c-.4072.0892-.7821.0918-1.1967-.0304-.5562-.1642-1.0081-.5347-1.3436-1.0997-.2139-.3607-.5928-.7519-.9882-.7232l-.0969-1.0986c.8549-.0733 1.5945.5208 2.0335 1.2584.195.328.4195.5203.7076.6054.2784.082.5774.0426.9258-.0805.0875-.6975.407-.9586.6485-1.3262v-.0006c-2.4515-.3656-3.4285-1.6662-3.8163-2.6927-.5138-1.363-.2381-3.0659.6706-4.1419.0176-.021.0495-.0759.0372-.1142-.4167-1.2585.091-2.2995.1097-2.41.4808.1422.5589-.143 2.0885.7863l.2644.1588c.1106.066.0759.0283.1864.02.6387-.1735 1.3119-.2693 1.9753-.2779.6683.0086 1.3373.1044 2.0024.2849l.0856.0087c-.0075-.0012.0232-.0055.0748-.0362 1.9107-1.1574 1.8421-.7791 2.3545-.9457.0185.1106.5194 1.1686.1073 2.4111-.0556.1712 1.6565 1.739.7076 4.2556-.3878 1.027-1.3647 2.3276-3.8161 2.6932v.0006c.3142.4789.6918.7337.6898 1.7217v3.8869c4.1106-.9932 7.2058-5.0004 7.2058-9.4118.0002-5.1694-4.2421-9.41172-9.4116-9.41172Z" fill="#fff"/>
<symbol id=">" width="6" height="10" fill="none" xmlns="http://www.w3.org/2000/svg"><path d="m1 1 3.61035 4L1 9" stroke="#fff" stroke-width="2" stroke-linecap="round" stroke-linejoin="round"/>
<symbol id="facebook" width="33" height="32" fill="none" xmlns="http://www.w3.org/2000/svg"><path d="M16.4706 32c8.8365 0 16-7.1634 16-16 0-8.83656-7.1635-16-16-16C7.63403 0 .470581 7.16344.470581 16c0 8.8366 7.163449 16 16.000019 16Z" fill="none"/><path d="M20.9162 15.9814H18.306v9.6185h-3.9546v-9.6185h-1.8808v-3.3803h1.8808v-2.1875c0-1.56422.7387-4.0137 3.9898-4.0137l2.9294.01233v3.28118h-2.1254c-.3487 0-.8389.1752-.8389.92139v1.9894h2.9554l-.3455 3.3772Z" fill="#fff"/>
<symbol id="telegram" width="33" height="32" fill="none" xmlns="http://www.w3.org/2000/svg"><g clip-path="url(#a)"><circle cx="16.2352" cy="16" r="16" fill="none"/><path d="m13.1025 18.3753-.3176 4.1693c.4544 0 .6512-.1822.8872-.4009l2.1305-1.9003 4.4145 3.0173c.8096.4211 1.38.1993 1.5984-.6952l2.8977-12.67232.0008-.00075c.2568-1.11701-.4328-1.5538-1.2216-1.27978L6.45997 14.6987c-1.16243.4211-1.14483 1.0259-.19761 1.2999l4.35454 1.2641 10.1146-5.9068c.476-.2942.9088-.1314.5528.1628l-8.1818 6.8566Z" fill="#fff"/></g><defs><clipPath id="a"><path fill="#fff" transform="translate(.235229)" d="M0 0h32v32H0z"/></clipPath>


</defs></svg>


